<mxfile host="app.diagrams.net" modified="2023-10-24T08:04:53.684Z" agent="Mozilla/5.0 (X11; Linux x86_64) AppleWebKit/537.36 (KHTML, like Gecko) Chrome/118.0.0.0 Safari/537.36" etag="UBs9NpYQ_pC7CfoICeOk" version="22.0.6" type="github">
  <diagram name="Page-1" id="fKCOAP6SfdI_FHSAXU70">
    <mxGraphModel dx="6717" dy="3753" grid="1" gridSize="10" guides="1" tooltips="1" connect="1" arrows="1" fold="1" page="1" pageScale="1" pageWidth="850" pageHeight="1100" math="0" shadow="0">
      <root>
        <mxCell id="0" />
        <mxCell id="1" parent="0" />
        <mxCell id="H88m9tB2CpMA8MdbRzzh-1" style="edgeStyle=orthogonalEdgeStyle;rounded=0;orthogonalLoop=1;jettySize=auto;html=1;entryX=0.5;entryY=0;entryDx=0;entryDy=0;" edge="1" parent="1" source="H88m9tB2CpMA8MdbRzzh-2" target="H88m9tB2CpMA8MdbRzzh-5">
          <mxGeometry relative="1" as="geometry" />
        </mxCell>
        <mxCell id="H88m9tB2CpMA8MdbRzzh-2" value="&lt;b&gt;START&lt;/b&gt;" style="rounded=1;whiteSpace=wrap;html=1;arcSize=50;fillColor=#dae8fc;strokeColor=#6c8ebf;" vertex="1" parent="1">
          <mxGeometry x="365" y="-1040" width="120" height="60" as="geometry" />
        </mxCell>
        <mxCell id="H88m9tB2CpMA8MdbRzzh-3" value="" style="edgeStyle=orthogonalEdgeStyle;rounded=0;orthogonalLoop=1;jettySize=auto;html=1;" edge="1" parent="1" source="H88m9tB2CpMA8MdbRzzh-5" target="H88m9tB2CpMA8MdbRzzh-7">
          <mxGeometry relative="1" as="geometry" />
        </mxCell>
        <mxCell id="H88m9tB2CpMA8MdbRzzh-4" value="" style="edgeStyle=orthogonalEdgeStyle;rounded=0;orthogonalLoop=1;jettySize=auto;html=1;" edge="1" parent="1" source="H88m9tB2CpMA8MdbRzzh-5" target="H88m9tB2CpMA8MdbRzzh-2">
          <mxGeometry relative="1" as="geometry" />
        </mxCell>
        <mxCell id="H88m9tB2CpMA8MdbRzzh-5" value="&lt;b&gt;OUTPUT&lt;/b&gt;&lt;br&gt;Welcome to the database management system" style="shape=parallelogram;perimeter=parallelogramPerimeter;whiteSpace=wrap;html=1;fixedSize=1;fillColor=#d5e8d4;strokeColor=#82b366;" vertex="1" parent="1">
          <mxGeometry x="335" y="-940" width="180" height="90" as="geometry" />
        </mxCell>
        <mxCell id="H88m9tB2CpMA8MdbRzzh-6" value="" style="edgeStyle=orthogonalEdgeStyle;rounded=0;orthogonalLoop=1;jettySize=auto;html=1;" edge="1" parent="1" source="H88m9tB2CpMA8MdbRzzh-7" target="H88m9tB2CpMA8MdbRzzh-44">
          <mxGeometry relative="1" as="geometry" />
        </mxCell>
        <mxCell id="H88m9tB2CpMA8MdbRzzh-7" value="&lt;b&gt;OUTPUT&lt;/b&gt;&lt;br&gt;&lt;div style=&quot;text-align: left;&quot;&gt;&lt;span style=&quot;background-color: initial;&quot;&gt;Menu:&lt;/span&gt;&lt;/div&gt;&lt;div style=&quot;text-align: left;&quot;&gt;1. Register&lt;/div&gt;&lt;div style=&quot;text-align: left;&quot;&gt;2. Login&lt;/div&gt;&lt;div style=&quot;text-align: left;&quot;&gt;3. Quit&lt;/div&gt;" style="shape=parallelogram;perimeter=parallelogramPerimeter;whiteSpace=wrap;html=1;fixedSize=1;fillColor=#d5e8d4;strokeColor=#82b366;" vertex="1" parent="1">
          <mxGeometry x="335" y="-810" width="180" height="90" as="geometry" />
        </mxCell>
        <mxCell id="H88m9tB2CpMA8MdbRzzh-8" value="" style="edgeStyle=orthogonalEdgeStyle;rounded=0;orthogonalLoop=1;jettySize=auto;html=1;" edge="1" parent="1" source="H88m9tB2CpMA8MdbRzzh-9" target="H88m9tB2CpMA8MdbRzzh-10">
          <mxGeometry relative="1" as="geometry" />
        </mxCell>
        <mxCell id="H88m9tB2CpMA8MdbRzzh-9" value="&lt;b&gt;OUTPUT&lt;/b&gt;&lt;br&gt;&lt;div style=&quot;text-align: left;&quot;&gt;The program has been finished&lt;/div&gt;" style="shape=parallelogram;perimeter=parallelogramPerimeter;whiteSpace=wrap;html=1;fixedSize=1;fillColor=#d5e8d4;strokeColor=#82b366;" vertex="1" parent="1">
          <mxGeometry x="350" y="1860" width="180" height="90" as="geometry" />
        </mxCell>
        <mxCell id="H88m9tB2CpMA8MdbRzzh-10" value="&lt;b&gt;END&lt;/b&gt;" style="rounded=1;whiteSpace=wrap;html=1;arcSize=50;fillColor=#dae8fc;strokeColor=#6c8ebf;" vertex="1" parent="1">
          <mxGeometry x="380" y="2010" width="120" height="60" as="geometry" />
        </mxCell>
        <mxCell id="H88m9tB2CpMA8MdbRzzh-11" style="edgeStyle=orthogonalEdgeStyle;rounded=0;orthogonalLoop=1;jettySize=auto;html=1;entryX=0.5;entryY=0;entryDx=0;entryDy=0;" edge="1" parent="1" source="H88m9tB2CpMA8MdbRzzh-15" target="H88m9tB2CpMA8MdbRzzh-17">
          <mxGeometry relative="1" as="geometry" />
        </mxCell>
        <mxCell id="H88m9tB2CpMA8MdbRzzh-12" value="Yes" style="edgeLabel;html=1;align=center;verticalAlign=middle;resizable=0;points=[];" vertex="1" connectable="0" parent="H88m9tB2CpMA8MdbRzzh-11">
          <mxGeometry x="-0.2588" y="5" relative="1" as="geometry">
            <mxPoint x="-6" as="offset" />
          </mxGeometry>
        </mxCell>
        <mxCell id="H88m9tB2CpMA8MdbRzzh-13" value="" style="edgeStyle=orthogonalEdgeStyle;rounded=0;orthogonalLoop=1;jettySize=auto;html=1;" edge="1" parent="1" source="H88m9tB2CpMA8MdbRzzh-15" target="H88m9tB2CpMA8MdbRzzh-27">
          <mxGeometry relative="1" as="geometry" />
        </mxCell>
        <mxCell id="H88m9tB2CpMA8MdbRzzh-14" value="No" style="edgeLabel;html=1;align=center;verticalAlign=middle;resizable=0;points=[];" vertex="1" connectable="0" parent="H88m9tB2CpMA8MdbRzzh-13">
          <mxGeometry x="-0.0691" y="4" relative="1" as="geometry">
            <mxPoint x="1" y="3" as="offset" />
          </mxGeometry>
        </mxCell>
        <mxCell id="H88m9tB2CpMA8MdbRzzh-15" value="choice == 1" style="strokeWidth=2;html=1;shape=mxgraph.flowchart.decision;whiteSpace=wrap;fillColor=#6d8764;fontColor=#ffffff;strokeColor=#3A5431;" vertex="1" parent="1">
          <mxGeometry x="375" y="-530" width="100" height="100" as="geometry" />
        </mxCell>
        <mxCell id="H88m9tB2CpMA8MdbRzzh-16" value="" style="edgeStyle=orthogonalEdgeStyle;rounded=0;orthogonalLoop=1;jettySize=auto;html=1;" edge="1" parent="1" source="H88m9tB2CpMA8MdbRzzh-17" target="H88m9tB2CpMA8MdbRzzh-19">
          <mxGeometry relative="1" as="geometry" />
        </mxCell>
        <mxCell id="H88m9tB2CpMA8MdbRzzh-17" value="&lt;b&gt;REGISTER&lt;/b&gt;" style="rounded=0;whiteSpace=wrap;html=1;shape=process;backgroundOutline=1;fillColor=#b0e3e6;strokeColor=#0e8088;" vertex="1" parent="1">
          <mxGeometry x="365" y="-380" width="120" height="60" as="geometry" />
        </mxCell>
        <mxCell id="H88m9tB2CpMA8MdbRzzh-18" style="edgeStyle=orthogonalEdgeStyle;rounded=0;orthogonalLoop=1;jettySize=auto;html=1;entryX=1;entryY=0.5;entryDx=0;entryDy=0;" edge="1" parent="1" source="H88m9tB2CpMA8MdbRzzh-19" target="H88m9tB2CpMA8MdbRzzh-23">
          <mxGeometry relative="1" as="geometry" />
        </mxCell>
        <mxCell id="H88m9tB2CpMA8MdbRzzh-19" value="&lt;b&gt;INPUT&lt;/b&gt;&lt;br&gt;name, password" style="shape=parallelogram;perimeter=parallelogramPerimeter;whiteSpace=wrap;html=1;fixedSize=1;fillColor=#647687;fontColor=#ffffff;strokeColor=#314354;" vertex="1" parent="1">
          <mxGeometry x="365" y="-260" width="120" height="60" as="geometry" />
        </mxCell>
        <mxCell id="H88m9tB2CpMA8MdbRzzh-20" value="list_users" style="strokeWidth=2;html=1;shape=mxgraph.flowchart.database;whiteSpace=wrap;fillColor=#f0a30a;strokeColor=#BD7000;fontColor=#000000;" vertex="1" parent="1">
          <mxGeometry x="10" y="-275" width="90" height="90" as="geometry" />
        </mxCell>
        <mxCell id="H88m9tB2CpMA8MdbRzzh-21" value="" style="edgeStyle=orthogonalEdgeStyle;rounded=0;orthogonalLoop=1;jettySize=auto;html=1;" edge="1" parent="1" source="H88m9tB2CpMA8MdbRzzh-23" target="H88m9tB2CpMA8MdbRzzh-20">
          <mxGeometry relative="1" as="geometry" />
        </mxCell>
        <mxCell id="H88m9tB2CpMA8MdbRzzh-22" style="edgeStyle=orthogonalEdgeStyle;rounded=0;orthogonalLoop=1;jettySize=auto;html=1;entryX=0;entryY=0.5;entryDx=0;entryDy=0;" edge="1" parent="1" source="H88m9tB2CpMA8MdbRzzh-23" target="H88m9tB2CpMA8MdbRzzh-38">
          <mxGeometry relative="1" as="geometry">
            <Array as="points">
              <mxPoint x="240" y="70" />
            </Array>
          </mxGeometry>
        </mxCell>
        <mxCell id="H88m9tB2CpMA8MdbRzzh-23" value="&lt;b&gt;SAVE&lt;/b&gt;&lt;br&gt;Store data" style="rounded=0;whiteSpace=wrap;html=1;fillColor=#fad9d5;strokeColor=#ae4132;" vertex="1" parent="1">
          <mxGeometry x="180" y="-260" width="120" height="60" as="geometry" />
        </mxCell>
        <mxCell id="H88m9tB2CpMA8MdbRzzh-24" value="" style="edgeStyle=orthogonalEdgeStyle;rounded=0;orthogonalLoop=1;jettySize=auto;html=1;" edge="1" parent="1" source="H88m9tB2CpMA8MdbRzzh-27" target="H88m9tB2CpMA8MdbRzzh-29">
          <mxGeometry relative="1" as="geometry" />
        </mxCell>
        <mxCell id="H88m9tB2CpMA8MdbRzzh-25" value="Yes" style="edgeLabel;html=1;align=center;verticalAlign=middle;resizable=0;points=[];" vertex="1" connectable="0" parent="H88m9tB2CpMA8MdbRzzh-24">
          <mxGeometry x="-0.3059" y="4" relative="1" as="geometry">
            <mxPoint x="-5" as="offset" />
          </mxGeometry>
        </mxCell>
        <mxCell id="H88m9tB2CpMA8MdbRzzh-26" style="edgeStyle=orthogonalEdgeStyle;rounded=0;orthogonalLoop=1;jettySize=auto;html=1;entryX=1;entryY=0.5;entryDx=0;entryDy=0;" edge="1" parent="1" source="H88m9tB2CpMA8MdbRzzh-27" target="H88m9tB2CpMA8MdbRzzh-9">
          <mxGeometry relative="1" as="geometry">
            <Array as="points">
              <mxPoint x="800" y="-480" />
              <mxPoint x="800" y="1900" />
              <mxPoint x="520" y="1900" />
            </Array>
          </mxGeometry>
        </mxCell>
        <mxCell id="H88m9tB2CpMA8MdbRzzh-27" value="choice == 2" style="strokeWidth=2;html=1;shape=mxgraph.flowchart.decision;whiteSpace=wrap;fillColor=#6d8764;fontColor=#ffffff;strokeColor=#3A5431;" vertex="1" parent="1">
          <mxGeometry x="590" y="-530" width="100" height="100" as="geometry" />
        </mxCell>
        <mxCell id="H88m9tB2CpMA8MdbRzzh-28" value="" style="edgeStyle=orthogonalEdgeStyle;rounded=0;orthogonalLoop=1;jettySize=auto;html=1;" edge="1" parent="1" source="H88m9tB2CpMA8MdbRzzh-29" target="H88m9tB2CpMA8MdbRzzh-31">
          <mxGeometry relative="1" as="geometry" />
        </mxCell>
        <mxCell id="H88m9tB2CpMA8MdbRzzh-29" value="Login" style="rounded=0;whiteSpace=wrap;html=1;fontStyle=1;shape=process;backgroundOutline=1;fillColor=#b0e3e6;strokeColor=#0e8088;" vertex="1" parent="1">
          <mxGeometry x="580" y="-380" width="120" height="60" as="geometry" />
        </mxCell>
        <mxCell id="H88m9tB2CpMA8MdbRzzh-30" value="" style="edgeStyle=orthogonalEdgeStyle;rounded=0;orthogonalLoop=1;jettySize=auto;html=1;" edge="1" parent="1" source="H88m9tB2CpMA8MdbRzzh-31" target="H88m9tB2CpMA8MdbRzzh-36">
          <mxGeometry relative="1" as="geometry" />
        </mxCell>
        <mxCell id="H88m9tB2CpMA8MdbRzzh-31" value="&lt;b&gt;INPUT&lt;br&gt;name, password&lt;br&gt;&lt;/b&gt;" style="shape=parallelogram;perimeter=parallelogramPerimeter;whiteSpace=wrap;html=1;fixedSize=1;fillColor=#647687;fontColor=#ffffff;strokeColor=#314354;" vertex="1" parent="1">
          <mxGeometry x="580" y="-260" width="120" height="60" as="geometry" />
        </mxCell>
        <mxCell id="H88m9tB2CpMA8MdbRzzh-32" style="edgeStyle=orthogonalEdgeStyle;rounded=0;orthogonalLoop=1;jettySize=auto;html=1;entryX=1;entryY=0.5;entryDx=0;entryDy=0;" edge="1" parent="1" source="H88m9tB2CpMA8MdbRzzh-36" target="H88m9tB2CpMA8MdbRzzh-17">
          <mxGeometry relative="1" as="geometry" />
        </mxCell>
        <mxCell id="H88m9tB2CpMA8MdbRzzh-33" value="No" style="edgeLabel;html=1;align=center;verticalAlign=middle;resizable=0;points=[];" vertex="1" connectable="0" parent="H88m9tB2CpMA8MdbRzzh-32">
          <mxGeometry x="-0.8247" y="-4" relative="1" as="geometry">
            <mxPoint x="4" y="3" as="offset" />
          </mxGeometry>
        </mxCell>
        <mxCell id="H88m9tB2CpMA8MdbRzzh-34" value="" style="edgeStyle=orthogonalEdgeStyle;rounded=0;orthogonalLoop=1;jettySize=auto;html=1;" edge="1" parent="1" source="H88m9tB2CpMA8MdbRzzh-36" target="H88m9tB2CpMA8MdbRzzh-38">
          <mxGeometry relative="1" as="geometry" />
        </mxCell>
        <mxCell id="H88m9tB2CpMA8MdbRzzh-35" value="Yes" style="edgeLabel;html=1;align=center;verticalAlign=middle;resizable=0;points=[];" vertex="1" connectable="0" parent="H88m9tB2CpMA8MdbRzzh-34">
          <mxGeometry x="-0.175" y="4" relative="1" as="geometry">
            <mxPoint x="-5" as="offset" />
          </mxGeometry>
        </mxCell>
        <mxCell id="H88m9tB2CpMA8MdbRzzh-36" value="nama and password == valid" style="strokeWidth=2;html=1;shape=mxgraph.flowchart.decision;whiteSpace=wrap;fillColor=#6d8764;fontColor=#ffffff;strokeColor=#3A5431;" vertex="1" parent="1">
          <mxGeometry x="590" y="-140" width="100" height="100" as="geometry" />
        </mxCell>
        <mxCell id="H88m9tB2CpMA8MdbRzzh-37" value="" style="edgeStyle=orthogonalEdgeStyle;rounded=0;orthogonalLoop=1;jettySize=auto;html=1;" edge="1" parent="1" source="H88m9tB2CpMA8MdbRzzh-38" target="H88m9tB2CpMA8MdbRzzh-40">
          <mxGeometry relative="1" as="geometry" />
        </mxCell>
        <mxCell id="H88m9tB2CpMA8MdbRzzh-38" value="&lt;span&gt;MENU&lt;/span&gt;" style="rounded=0;whiteSpace=wrap;html=1;fontStyle=1;fillColor=#fad9d5;strokeColor=#ae4132;" vertex="1" parent="1">
          <mxGeometry x="580" y="40" width="120" height="60" as="geometry" />
        </mxCell>
        <mxCell id="H88m9tB2CpMA8MdbRzzh-39" value="" style="edgeStyle=orthogonalEdgeStyle;rounded=0;orthogonalLoop=1;jettySize=auto;html=1;" edge="1" parent="1" source="H88m9tB2CpMA8MdbRzzh-40" target="H88m9tB2CpMA8MdbRzzh-42">
          <mxGeometry relative="1" as="geometry" />
        </mxCell>
        <mxCell id="H88m9tB2CpMA8MdbRzzh-40" value="&lt;b&gt;OUTPUT&lt;/b&gt;&lt;br&gt;&lt;div style=&quot;text-align: left;&quot;&gt;&lt;span style=&quot;background-color: initial;&quot;&gt;Menu:&lt;/span&gt;&lt;/div&gt;&lt;div style=&quot;text-align: left;&quot;&gt;1. Create database&lt;/div&gt;&lt;div style=&quot;text-align: left;&quot;&gt;2. Show database&lt;/div&gt;&lt;div style=&quot;text-align: left;&quot;&gt;3. Select database&lt;/div&gt;&lt;div style=&quot;text-align: left;&quot;&gt;4. Delete database&lt;/div&gt;&lt;div style=&quot;text-align: left;&quot;&gt;5. Logout&lt;/div&gt;" style="shape=parallelogram;perimeter=parallelogramPerimeter;whiteSpace=wrap;html=1;fixedSize=1;fillColor=#d5e8d4;strokeColor=#82b366;" vertex="1" parent="1">
          <mxGeometry x="530" y="150" width="220" height="110" as="geometry" />
        </mxCell>
        <mxCell id="H88m9tB2CpMA8MdbRzzh-41" value="" style="edgeStyle=orthogonalEdgeStyle;rounded=0;orthogonalLoop=1;jettySize=auto;html=1;" edge="1" parent="1" source="H88m9tB2CpMA8MdbRzzh-42" target="H88m9tB2CpMA8MdbRzzh-49">
          <mxGeometry relative="1" as="geometry" />
        </mxCell>
        <mxCell id="H88m9tB2CpMA8MdbRzzh-42" value="&lt;b&gt;INPUT&lt;/b&gt;&lt;br&gt;Choose menu" style="shape=parallelogram;perimeter=parallelogramPerimeter;whiteSpace=wrap;html=1;fixedSize=1;fillColor=#647687;fontColor=#ffffff;strokeColor=#314354;" vertex="1" parent="1">
          <mxGeometry x="580" y="300" width="120" height="60" as="geometry" />
        </mxCell>
        <mxCell id="H88m9tB2CpMA8MdbRzzh-43" value="" style="edgeStyle=orthogonalEdgeStyle;rounded=0;orthogonalLoop=1;jettySize=auto;html=1;" edge="1" parent="1" source="H88m9tB2CpMA8MdbRzzh-44" target="H88m9tB2CpMA8MdbRzzh-15">
          <mxGeometry relative="1" as="geometry" />
        </mxCell>
        <mxCell id="H88m9tB2CpMA8MdbRzzh-44" value="&lt;b&gt;INPUT&lt;br&gt;Choose menu:&amp;nbsp;&lt;br&gt;&lt;/b&gt;" style="shape=parallelogram;perimeter=parallelogramPerimeter;whiteSpace=wrap;html=1;fixedSize=1;fillColor=#647687;fontColor=#ffffff;strokeColor=#314354;" vertex="1" parent="1">
          <mxGeometry x="365" y="-650" width="120" height="60" as="geometry" />
        </mxCell>
        <mxCell id="H88m9tB2CpMA8MdbRzzh-45" value="" style="edgeStyle=orthogonalEdgeStyle;rounded=0;orthogonalLoop=1;jettySize=auto;html=1;" edge="1" parent="1" source="H88m9tB2CpMA8MdbRzzh-49" target="H88m9tB2CpMA8MdbRzzh-51">
          <mxGeometry relative="1" as="geometry" />
        </mxCell>
        <mxCell id="H88m9tB2CpMA8MdbRzzh-46" value="YES" style="edgeLabel;html=1;align=center;verticalAlign=middle;resizable=0;points=[];" vertex="1" connectable="0" parent="H88m9tB2CpMA8MdbRzzh-45">
          <mxGeometry x="-0.3657" y="4" relative="1" as="geometry">
            <mxPoint x="-4" y="4" as="offset" />
          </mxGeometry>
        </mxCell>
        <mxCell id="H88m9tB2CpMA8MdbRzzh-47" style="edgeStyle=orthogonalEdgeStyle;rounded=0;orthogonalLoop=1;jettySize=auto;html=1;entryX=1;entryY=0.5;entryDx=0;entryDy=0;" edge="1" parent="1" source="H88m9tB2CpMA8MdbRzzh-49" target="H88m9tB2CpMA8MdbRzzh-61">
          <mxGeometry relative="1" as="geometry" />
        </mxCell>
        <mxCell id="H88m9tB2CpMA8MdbRzzh-48" value="No" style="edgeLabel;html=1;align=center;verticalAlign=middle;resizable=0;points=[];" vertex="1" connectable="0" parent="H88m9tB2CpMA8MdbRzzh-47">
          <mxGeometry x="-0.0627" y="-1" relative="1" as="geometry">
            <mxPoint x="1" y="1" as="offset" />
          </mxGeometry>
        </mxCell>
        <mxCell id="H88m9tB2CpMA8MdbRzzh-49" value="choice == 1" style="rhombus;whiteSpace=wrap;html=1;fillColor=#6d8764;fontColor=#ffffff;strokeColor=#3A5431;" vertex="1" parent="1">
          <mxGeometry x="600" y="410" width="80" height="80" as="geometry" />
        </mxCell>
        <mxCell id="H88m9tB2CpMA8MdbRzzh-50" value="" style="edgeStyle=orthogonalEdgeStyle;rounded=0;orthogonalLoop=1;jettySize=auto;html=1;" edge="1" parent="1" source="H88m9tB2CpMA8MdbRzzh-51" target="H88m9tB2CpMA8MdbRzzh-53">
          <mxGeometry relative="1" as="geometry" />
        </mxCell>
        <mxCell id="H88m9tB2CpMA8MdbRzzh-51" value="&lt;b&gt;CREATE DATABASE&lt;/b&gt;" style="shape=process;whiteSpace=wrap;html=1;backgroundOutline=1;fillColor=#b0e3e6;strokeColor=#0e8088;" vertex="1" parent="1">
          <mxGeometry x="560" y="540" width="160" height="80" as="geometry" />
        </mxCell>
        <mxCell id="H88m9tB2CpMA8MdbRzzh-52" value="" style="edgeStyle=orthogonalEdgeStyle;rounded=0;orthogonalLoop=1;jettySize=auto;html=1;" edge="1" parent="1" source="H88m9tB2CpMA8MdbRzzh-53" target="H88m9tB2CpMA8MdbRzzh-55">
          <mxGeometry relative="1" as="geometry" />
        </mxCell>
        <mxCell id="H88m9tB2CpMA8MdbRzzh-53" value="&lt;b&gt;INPUT&lt;br&gt;&lt;/b&gt;name_database" style="shape=parallelogram;perimeter=parallelogramPerimeter;whiteSpace=wrap;html=1;fixedSize=1;fillColor=#647687;fontColor=#ffffff;strokeColor=#314354;" vertex="1" parent="1">
          <mxGeometry x="580" y="670" width="120" height="60" as="geometry" />
        </mxCell>
        <mxCell id="H88m9tB2CpMA8MdbRzzh-54" value="" style="edgeStyle=orthogonalEdgeStyle;rounded=0;orthogonalLoop=1;jettySize=auto;html=1;" edge="1" parent="1" source="H88m9tB2CpMA8MdbRzzh-55" target="H88m9tB2CpMA8MdbRzzh-56">
          <mxGeometry relative="1" as="geometry" />
        </mxCell>
        <mxCell id="H88m9tB2CpMA8MdbRzzh-55" value="&lt;b&gt;SAVE&lt;/b&gt;&lt;br&gt;Store data" style="rounded=0;whiteSpace=wrap;html=1;fillColor=#fad9d5;strokeColor=#ae4132;" vertex="1" parent="1">
          <mxGeometry x="580" y="780" width="120" height="60" as="geometry" />
        </mxCell>
        <mxCell id="H88m9tB2CpMA8MdbRzzh-56" value="databases" style="strokeWidth=2;html=1;shape=mxgraph.flowchart.database;whiteSpace=wrap;fillColor=#f0a30a;strokeColor=#BD7000;fontColor=#000000;" vertex="1" parent="1">
          <mxGeometry x="595" y="900" width="90" height="90" as="geometry" />
        </mxCell>
        <mxCell id="H88m9tB2CpMA8MdbRzzh-57" value="" style="edgeStyle=orthogonalEdgeStyle;rounded=0;orthogonalLoop=1;jettySize=auto;html=1;" edge="1" parent="1" source="H88m9tB2CpMA8MdbRzzh-61" target="H88m9tB2CpMA8MdbRzzh-63">
          <mxGeometry relative="1" as="geometry" />
        </mxCell>
        <mxCell id="H88m9tB2CpMA8MdbRzzh-58" value="Yes" style="edgeLabel;html=1;align=center;verticalAlign=middle;resizable=0;points=[];" vertex="1" connectable="0" parent="H88m9tB2CpMA8MdbRzzh-57">
          <mxGeometry x="-0.5259" y="1" relative="1" as="geometry">
            <mxPoint y="8" as="offset" />
          </mxGeometry>
        </mxCell>
        <mxCell id="H88m9tB2CpMA8MdbRzzh-59" style="edgeStyle=orthogonalEdgeStyle;rounded=0;orthogonalLoop=1;jettySize=auto;html=1;entryX=1;entryY=0.5;entryDx=0;entryDy=0;" edge="1" parent="1" source="H88m9tB2CpMA8MdbRzzh-61" target="H88m9tB2CpMA8MdbRzzh-71">
          <mxGeometry relative="1" as="geometry">
            <mxPoint x="270.0000000000002" y="450" as="targetPoint" />
          </mxGeometry>
        </mxCell>
        <mxCell id="H88m9tB2CpMA8MdbRzzh-60" value="No" style="edgeLabel;html=1;align=center;verticalAlign=middle;resizable=0;points=[];" vertex="1" connectable="0" parent="H88m9tB2CpMA8MdbRzzh-59">
          <mxGeometry x="-0.1658" y="3" relative="1" as="geometry">
            <mxPoint x="-6" y="-3" as="offset" />
          </mxGeometry>
        </mxCell>
        <mxCell id="H88m9tB2CpMA8MdbRzzh-61" value="choice == 2" style="rhombus;whiteSpace=wrap;html=1;fillColor=#6d8764;fontColor=#ffffff;strokeColor=#3A5431;" vertex="1" parent="1">
          <mxGeometry x="390" y="410" width="80" height="80" as="geometry" />
        </mxCell>
        <mxCell id="H88m9tB2CpMA8MdbRzzh-62" value="" style="edgeStyle=orthogonalEdgeStyle;rounded=0;orthogonalLoop=1;jettySize=auto;html=1;" edge="1" parent="1" source="H88m9tB2CpMA8MdbRzzh-63" target="H88m9tB2CpMA8MdbRzzh-65">
          <mxGeometry relative="1" as="geometry" />
        </mxCell>
        <mxCell id="H88m9tB2CpMA8MdbRzzh-63" value="&lt;b&gt;SHOW DATABASE&lt;/b&gt;" style="shape=process;whiteSpace=wrap;html=1;backgroundOutline=1;fillColor=#b0e3e6;strokeColor=#0e8088;" vertex="1" parent="1">
          <mxGeometry x="350" y="540" width="160" height="80" as="geometry" />
        </mxCell>
        <mxCell id="H88m9tB2CpMA8MdbRzzh-64" value="" style="edgeStyle=orthogonalEdgeStyle;rounded=0;orthogonalLoop=1;jettySize=auto;html=1;" edge="1" parent="1" source="H88m9tB2CpMA8MdbRzzh-65" target="H88m9tB2CpMA8MdbRzzh-66">
          <mxGeometry relative="1" as="geometry" />
        </mxCell>
        <mxCell id="H88m9tB2CpMA8MdbRzzh-65" value="databases" style="strokeWidth=2;html=1;shape=mxgraph.flowchart.database;whiteSpace=wrap;fillColor=#f0a30a;strokeColor=#BD7000;fontColor=#000000;" vertex="1" parent="1">
          <mxGeometry x="385" y="680" width="90" height="90" as="geometry" />
        </mxCell>
        <mxCell id="H88m9tB2CpMA8MdbRzzh-66" value="&lt;b&gt;OUTPUT&lt;/b&gt;&lt;br&gt;databases" style="shape=parallelogram;perimeter=parallelogramPerimeter;whiteSpace=wrap;html=1;fixedSize=1;fillColor=#d5e8d4;strokeColor=#82b366;" vertex="1" parent="1">
          <mxGeometry x="370" y="820" width="120" height="60" as="geometry" />
        </mxCell>
        <mxCell id="H88m9tB2CpMA8MdbRzzh-67" value="" style="edgeStyle=orthogonalEdgeStyle;rounded=0;orthogonalLoop=1;jettySize=auto;html=1;" edge="1" parent="1" source="H88m9tB2CpMA8MdbRzzh-71" target="H88m9tB2CpMA8MdbRzzh-73">
          <mxGeometry relative="1" as="geometry" />
        </mxCell>
        <mxCell id="H88m9tB2CpMA8MdbRzzh-68" value="Yes" style="edgeLabel;html=1;align=center;verticalAlign=middle;resizable=0;points=[];" vertex="1" connectable="0" parent="H88m9tB2CpMA8MdbRzzh-67">
          <mxGeometry x="-0.2" y="-2" relative="1" as="geometry">
            <mxPoint x="1" y="-1" as="offset" />
          </mxGeometry>
        </mxCell>
        <mxCell id="H88m9tB2CpMA8MdbRzzh-69" style="edgeStyle=orthogonalEdgeStyle;rounded=0;orthogonalLoop=1;jettySize=auto;html=1;entryX=1;entryY=0.5;entryDx=0;entryDy=0;" edge="1" parent="1" source="H88m9tB2CpMA8MdbRzzh-71" target="H88m9tB2CpMA8MdbRzzh-134">
          <mxGeometry relative="1" as="geometry" />
        </mxCell>
        <mxCell id="H88m9tB2CpMA8MdbRzzh-70" value="No" style="edgeLabel;html=1;align=center;verticalAlign=middle;resizable=0;points=[];" vertex="1" connectable="0" parent="H88m9tB2CpMA8MdbRzzh-69">
          <mxGeometry x="-0.1283" y="-3" relative="1" as="geometry">
            <mxPoint x="-3" y="3" as="offset" />
          </mxGeometry>
        </mxCell>
        <mxCell id="H88m9tB2CpMA8MdbRzzh-71" value="choice == 3" style="rhombus;whiteSpace=wrap;html=1;fillColor=#6d8764;fontColor=#ffffff;strokeColor=#3A5431;" vertex="1" parent="1">
          <mxGeometry x="180" y="410" width="80" height="80" as="geometry" />
        </mxCell>
        <mxCell id="H88m9tB2CpMA8MdbRzzh-72" value="" style="edgeStyle=orthogonalEdgeStyle;rounded=0;orthogonalLoop=1;jettySize=auto;html=1;" edge="1" parent="1" source="H88m9tB2CpMA8MdbRzzh-73" target="H88m9tB2CpMA8MdbRzzh-75">
          <mxGeometry relative="1" as="geometry" />
        </mxCell>
        <mxCell id="H88m9tB2CpMA8MdbRzzh-73" value="&lt;b&gt;SELECT DATABASE&lt;/b&gt;" style="shape=process;whiteSpace=wrap;html=1;backgroundOutline=1;fillColor=#b0e3e6;strokeColor=#0e8088;" vertex="1" parent="1">
          <mxGeometry x="140" y="540" width="160" height="80" as="geometry" />
        </mxCell>
        <mxCell id="H88m9tB2CpMA8MdbRzzh-74" value="" style="edgeStyle=orthogonalEdgeStyle;rounded=0;orthogonalLoop=1;jettySize=auto;html=1;" edge="1" parent="1" source="H88m9tB2CpMA8MdbRzzh-75" target="H88m9tB2CpMA8MdbRzzh-77">
          <mxGeometry relative="1" as="geometry" />
        </mxCell>
        <mxCell id="H88m9tB2CpMA8MdbRzzh-75" value="databases" style="strokeWidth=2;html=1;shape=mxgraph.flowchart.database;whiteSpace=wrap;fillColor=#f0a30a;strokeColor=#BD7000;fontColor=#000000;" vertex="1" parent="1">
          <mxGeometry x="175" y="680" width="90" height="90" as="geometry" />
        </mxCell>
        <mxCell id="H88m9tB2CpMA8MdbRzzh-76" style="edgeStyle=orthogonalEdgeStyle;rounded=0;orthogonalLoop=1;jettySize=auto;html=1;" edge="1" parent="1" source="H88m9tB2CpMA8MdbRzzh-77" target="H88m9tB2CpMA8MdbRzzh-79">
          <mxGeometry relative="1" as="geometry" />
        </mxCell>
        <mxCell id="H88m9tB2CpMA8MdbRzzh-77" value="&lt;b&gt;MENU&lt;/b&gt;" style="shape=label;whiteSpace=wrap;html=1;fixedSize=1;rounded=0;fillColor=#fad9d5;strokeColor=#ae4132;" vertex="1" parent="1">
          <mxGeometry x="160" y="820" width="120" height="60" as="geometry" />
        </mxCell>
        <mxCell id="H88m9tB2CpMA8MdbRzzh-78" value="" style="edgeStyle=orthogonalEdgeStyle;rounded=0;orthogonalLoop=1;jettySize=auto;html=1;" edge="1" parent="1" source="H88m9tB2CpMA8MdbRzzh-79" target="H88m9tB2CpMA8MdbRzzh-81">
          <mxGeometry relative="1" as="geometry" />
        </mxCell>
        <mxCell id="H88m9tB2CpMA8MdbRzzh-79" value="&lt;b&gt;OUTPUT&lt;/b&gt;&lt;br&gt;&lt;div style=&quot;text-align: left;&quot;&gt;&lt;span style=&quot;background-color: initial;&quot;&gt;Menu:&lt;/span&gt;&lt;/div&gt;&lt;div style=&quot;text-align: left;&quot;&gt;1. Show data&lt;/div&gt;&lt;div style=&quot;text-align: left;&quot;&gt;2. Insert data&lt;/div&gt;&lt;div style=&quot;text-align: left;&quot;&gt;3. Update data&lt;/div&gt;&lt;div style=&quot;text-align: left;&quot;&gt;4. Delete data&lt;/div&gt;&lt;div style=&quot;text-align: left;&quot;&gt;5. Quit&amp;nbsp;&lt;/div&gt;" style="shape=parallelogram;perimeter=parallelogramPerimeter;whiteSpace=wrap;html=1;fixedSize=1;fillColor=#d5e8d4;strokeColor=#82b366;" vertex="1" parent="1">
          <mxGeometry x="110" y="940" width="220" height="110" as="geometry" />
        </mxCell>
        <mxCell id="H88m9tB2CpMA8MdbRzzh-80" value="" style="edgeStyle=orthogonalEdgeStyle;rounded=0;orthogonalLoop=1;jettySize=auto;html=1;" edge="1" parent="1" source="H88m9tB2CpMA8MdbRzzh-81" target="H88m9tB2CpMA8MdbRzzh-86">
          <mxGeometry relative="1" as="geometry" />
        </mxCell>
        <mxCell id="H88m9tB2CpMA8MdbRzzh-81" value="&lt;b&gt;INPUT&lt;br&gt;&lt;/b&gt;Choose database" style="shape=parallelogram;perimeter=parallelogramPerimeter;whiteSpace=wrap;html=1;fixedSize=1;fillColor=#647687;fontColor=#ffffff;strokeColor=#314354;" vertex="1" parent="1">
          <mxGeometry x="160" y="1090" width="120" height="60" as="geometry" />
        </mxCell>
        <mxCell id="H88m9tB2CpMA8MdbRzzh-82" value="" style="edgeStyle=orthogonalEdgeStyle;rounded=0;orthogonalLoop=1;jettySize=auto;html=1;" edge="1" parent="1" source="H88m9tB2CpMA8MdbRzzh-86" target="H88m9tB2CpMA8MdbRzzh-88">
          <mxGeometry relative="1" as="geometry" />
        </mxCell>
        <mxCell id="H88m9tB2CpMA8MdbRzzh-83" value="Yes" style="edgeLabel;html=1;align=center;verticalAlign=middle;resizable=0;points=[];" vertex="1" connectable="0" parent="H88m9tB2CpMA8MdbRzzh-82">
          <mxGeometry x="-0.2939" y="-2" relative="1" as="geometry">
            <mxPoint x="1" y="1" as="offset" />
          </mxGeometry>
        </mxCell>
        <mxCell id="H88m9tB2CpMA8MdbRzzh-84" style="edgeStyle=orthogonalEdgeStyle;rounded=0;orthogonalLoop=1;jettySize=auto;html=1;entryX=1;entryY=0.5;entryDx=0;entryDy=0;" edge="1" parent="1" source="H88m9tB2CpMA8MdbRzzh-86" target="H88m9tB2CpMA8MdbRzzh-96">
          <mxGeometry relative="1" as="geometry" />
        </mxCell>
        <mxCell id="H88m9tB2CpMA8MdbRzzh-85" value="No" style="edgeLabel;html=1;align=center;verticalAlign=middle;resizable=0;points=[];" vertex="1" connectable="0" parent="H88m9tB2CpMA8MdbRzzh-84">
          <mxGeometry x="-0.0528" y="4" relative="1" as="geometry">
            <mxPoint x="1" y="-3" as="offset" />
          </mxGeometry>
        </mxCell>
        <mxCell id="H88m9tB2CpMA8MdbRzzh-86" value="choice == 1" style="rhombus;whiteSpace=wrap;html=1;fillColor=#6d8764;fontColor=#ffffff;strokeColor=#3A5431;" vertex="1" parent="1">
          <mxGeometry x="180" y="1210" width="80" height="80" as="geometry" />
        </mxCell>
        <mxCell id="H88m9tB2CpMA8MdbRzzh-87" value="" style="edgeStyle=orthogonalEdgeStyle;rounded=0;orthogonalLoop=1;jettySize=auto;html=1;" edge="1" parent="1" source="H88m9tB2CpMA8MdbRzzh-88" target="H88m9tB2CpMA8MdbRzzh-90">
          <mxGeometry relative="1" as="geometry" />
        </mxCell>
        <mxCell id="H88m9tB2CpMA8MdbRzzh-88" value="&lt;b&gt;SHOW DATA&lt;/b&gt;" style="shape=process;whiteSpace=wrap;html=1;backgroundOutline=1;fillColor=#b0e3e6;strokeColor=#0e8088;" vertex="1" parent="1">
          <mxGeometry x="140" y="1340" width="160" height="80" as="geometry" />
        </mxCell>
        <mxCell id="H88m9tB2CpMA8MdbRzzh-89" value="" style="edgeStyle=orthogonalEdgeStyle;rounded=0;orthogonalLoop=1;jettySize=auto;html=1;" edge="1" parent="1" source="H88m9tB2CpMA8MdbRzzh-90" target="H88m9tB2CpMA8MdbRzzh-91">
          <mxGeometry relative="1" as="geometry" />
        </mxCell>
        <mxCell id="H88m9tB2CpMA8MdbRzzh-90" value="databases" style="strokeWidth=2;html=1;shape=mxgraph.flowchart.database;whiteSpace=wrap;fillColor=#f0a30a;strokeColor=#BD7000;fontColor=#000000;" vertex="1" parent="1">
          <mxGeometry x="175" y="1480" width="90" height="90" as="geometry" />
        </mxCell>
        <mxCell id="H88m9tB2CpMA8MdbRzzh-91" value="&lt;b&gt;OUTPUT&lt;/b&gt;&lt;br&gt;data" style="shape=parallelogram;perimeter=parallelogramPerimeter;whiteSpace=wrap;html=1;fixedSize=1;fillColor=#d5e8d4;strokeColor=#82b366;" vertex="1" parent="1">
          <mxGeometry x="160" y="1620" width="120" height="60" as="geometry" />
        </mxCell>
        <mxCell id="H88m9tB2CpMA8MdbRzzh-92" style="edgeStyle=orthogonalEdgeStyle;rounded=0;orthogonalLoop=1;jettySize=auto;html=1;" edge="1" parent="1" source="H88m9tB2CpMA8MdbRzzh-96" target="H88m9tB2CpMA8MdbRzzh-98">
          <mxGeometry relative="1" as="geometry" />
        </mxCell>
        <mxCell id="H88m9tB2CpMA8MdbRzzh-93" value="Yes" style="edgeLabel;html=1;align=center;verticalAlign=middle;resizable=0;points=[];" vertex="1" connectable="0" parent="H88m9tB2CpMA8MdbRzzh-92">
          <mxGeometry x="-0.1548" y="2" relative="1" as="geometry">
            <mxPoint x="-3" as="offset" />
          </mxGeometry>
        </mxCell>
        <mxCell id="H88m9tB2CpMA8MdbRzzh-94" style="edgeStyle=orthogonalEdgeStyle;rounded=0;orthogonalLoop=1;jettySize=auto;html=1;entryX=1;entryY=0.5;entryDx=0;entryDy=0;" edge="1" parent="1" source="H88m9tB2CpMA8MdbRzzh-96" target="H88m9tB2CpMA8MdbRzzh-108">
          <mxGeometry relative="1" as="geometry" />
        </mxCell>
        <mxCell id="H88m9tB2CpMA8MdbRzzh-95" value="No" style="edgeLabel;html=1;align=center;verticalAlign=middle;resizable=0;points=[];" vertex="1" connectable="0" parent="H88m9tB2CpMA8MdbRzzh-94">
          <mxGeometry x="-0.1167" y="2" relative="1" as="geometry">
            <mxPoint y="-2" as="offset" />
          </mxGeometry>
        </mxCell>
        <mxCell id="H88m9tB2CpMA8MdbRzzh-96" value="choice == 2" style="rhombus;whiteSpace=wrap;html=1;fillColor=#6d8764;fontColor=#ffffff;strokeColor=#3A5431;" vertex="1" parent="1">
          <mxGeometry x="-40" y="1210" width="80" height="80" as="geometry" />
        </mxCell>
        <mxCell id="H88m9tB2CpMA8MdbRzzh-97" value="" style="edgeStyle=orthogonalEdgeStyle;rounded=0;orthogonalLoop=1;jettySize=auto;html=1;" edge="1" parent="1" source="H88m9tB2CpMA8MdbRzzh-98" target="H88m9tB2CpMA8MdbRzzh-100">
          <mxGeometry relative="1" as="geometry" />
        </mxCell>
        <mxCell id="H88m9tB2CpMA8MdbRzzh-98" value="&lt;b&gt;INSERT DATA&lt;/b&gt;" style="shape=process;whiteSpace=wrap;html=1;backgroundOutline=1;fillColor=#b0e3e6;strokeColor=#0e8088;" vertex="1" parent="1">
          <mxGeometry x="-80" y="1340" width="160" height="80" as="geometry" />
        </mxCell>
        <mxCell id="H88m9tB2CpMA8MdbRzzh-99" value="" style="edgeStyle=orthogonalEdgeStyle;rounded=0;orthogonalLoop=1;jettySize=auto;html=1;" edge="1" parent="1" source="H88m9tB2CpMA8MdbRzzh-100" target="H88m9tB2CpMA8MdbRzzh-102">
          <mxGeometry relative="1" as="geometry" />
        </mxCell>
        <mxCell id="H88m9tB2CpMA8MdbRzzh-100" value="&lt;b&gt;INPUT&lt;br&gt;&lt;/b&gt;new data" style="shape=parallelogram;perimeter=parallelogramPerimeter;whiteSpace=wrap;html=1;fixedSize=1;fillColor=#647687;fontColor=#ffffff;strokeColor=#314354;" vertex="1" parent="1">
          <mxGeometry x="-60" y="1495" width="120" height="60" as="geometry" />
        </mxCell>
        <mxCell id="H88m9tB2CpMA8MdbRzzh-101" value="" style="edgeStyle=orthogonalEdgeStyle;rounded=0;orthogonalLoop=1;jettySize=auto;html=1;" edge="1" parent="1" source="H88m9tB2CpMA8MdbRzzh-102" target="H88m9tB2CpMA8MdbRzzh-103">
          <mxGeometry relative="1" as="geometry" />
        </mxCell>
        <mxCell id="H88m9tB2CpMA8MdbRzzh-102" value="&lt;b&gt;SAVE&lt;/b&gt;&lt;br&gt;Store data" style="rounded=0;whiteSpace=wrap;html=1;fillColor=#fad9d5;strokeColor=#ae4132;" vertex="1" parent="1">
          <mxGeometry x="-60" y="1610" width="120" height="60" as="geometry" />
        </mxCell>
        <mxCell id="H88m9tB2CpMA8MdbRzzh-103" value="databases" style="strokeWidth=2;html=1;shape=mxgraph.flowchart.database;whiteSpace=wrap;fillColor=#f0a30a;strokeColor=#BD7000;fontColor=#000000;" vertex="1" parent="1">
          <mxGeometry x="-45" y="1720" width="90" height="90" as="geometry" />
        </mxCell>
        <mxCell id="H88m9tB2CpMA8MdbRzzh-104" value="" style="edgeStyle=orthogonalEdgeStyle;rounded=0;orthogonalLoop=1;jettySize=auto;html=1;" edge="1" parent="1" source="H88m9tB2CpMA8MdbRzzh-108" target="H88m9tB2CpMA8MdbRzzh-110">
          <mxGeometry relative="1" as="geometry" />
        </mxCell>
        <mxCell id="H88m9tB2CpMA8MdbRzzh-105" value="Yes" style="edgeLabel;html=1;align=center;verticalAlign=middle;resizable=0;points=[];" vertex="1" connectable="0" parent="H88m9tB2CpMA8MdbRzzh-104">
          <mxGeometry x="-0.22" y="1" relative="1" as="geometry">
            <mxPoint x="-3" y="-1" as="offset" />
          </mxGeometry>
        </mxCell>
        <mxCell id="H88m9tB2CpMA8MdbRzzh-106" style="edgeStyle=orthogonalEdgeStyle;rounded=0;orthogonalLoop=1;jettySize=auto;html=1;entryX=1;entryY=0.5;entryDx=0;entryDy=0;" edge="1" parent="1" source="H88m9tB2CpMA8MdbRzzh-108" target="H88m9tB2CpMA8MdbRzzh-122">
          <mxGeometry relative="1" as="geometry" />
        </mxCell>
        <mxCell id="H88m9tB2CpMA8MdbRzzh-107" value="No" style="edgeLabel;html=1;align=center;verticalAlign=middle;resizable=0;points=[];" vertex="1" connectable="0" parent="H88m9tB2CpMA8MdbRzzh-106">
          <mxGeometry x="-0.0065" y="2" relative="1" as="geometry">
            <mxPoint x="-2" y="-2" as="offset" />
          </mxGeometry>
        </mxCell>
        <mxCell id="H88m9tB2CpMA8MdbRzzh-108" value="choice == 3" style="rhombus;whiteSpace=wrap;html=1;fillColor=#6d8764;fontColor=#ffffff;strokeColor=#3A5431;" vertex="1" parent="1">
          <mxGeometry x="-270" y="1210" width="80" height="80" as="geometry" />
        </mxCell>
        <mxCell id="H88m9tB2CpMA8MdbRzzh-109" value="" style="edgeStyle=orthogonalEdgeStyle;rounded=0;orthogonalLoop=1;jettySize=auto;html=1;" edge="1" parent="1" source="H88m9tB2CpMA8MdbRzzh-110" target="H88m9tB2CpMA8MdbRzzh-112">
          <mxGeometry relative="1" as="geometry" />
        </mxCell>
        <mxCell id="H88m9tB2CpMA8MdbRzzh-110" value="&lt;b&gt;UPDATE DATA&lt;/b&gt;" style="shape=process;whiteSpace=wrap;html=1;backgroundOutline=1;fillColor=#b0e3e6;strokeColor=#0e8088;" vertex="1" parent="1">
          <mxGeometry x="-310" y="1340" width="160" height="80" as="geometry" />
        </mxCell>
        <mxCell id="H88m9tB2CpMA8MdbRzzh-111" value="" style="edgeStyle=orthogonalEdgeStyle;rounded=0;orthogonalLoop=1;jettySize=auto;html=1;" edge="1" parent="1" source="H88m9tB2CpMA8MdbRzzh-112" target="H88m9tB2CpMA8MdbRzzh-114">
          <mxGeometry relative="1" as="geometry" />
        </mxCell>
        <mxCell id="H88m9tB2CpMA8MdbRzzh-112" value="&lt;b&gt;INPUT&lt;br&gt;&lt;/b&gt;choose data in database" style="shape=parallelogram;perimeter=parallelogramPerimeter;whiteSpace=wrap;html=1;fixedSize=1;fillColor=#647687;fontColor=#ffffff;strokeColor=#314354;" vertex="1" parent="1">
          <mxGeometry x="-290" y="1495" width="120" height="60" as="geometry" />
        </mxCell>
        <mxCell id="H88m9tB2CpMA8MdbRzzh-113" value="" style="edgeStyle=orthogonalEdgeStyle;rounded=0;orthogonalLoop=1;jettySize=auto;html=1;" edge="1" parent="1" source="H88m9tB2CpMA8MdbRzzh-114" target="H88m9tB2CpMA8MdbRzzh-116">
          <mxGeometry relative="1" as="geometry" />
        </mxCell>
        <mxCell id="H88m9tB2CpMA8MdbRzzh-114" value="&lt;b&gt;INPUT&lt;br&gt;&lt;/b&gt;new data" style="shape=parallelogram;perimeter=parallelogramPerimeter;whiteSpace=wrap;html=1;fixedSize=1;fillColor=#647687;fontColor=#ffffff;strokeColor=#314354;" vertex="1" parent="1">
          <mxGeometry x="-290" y="1610" width="120" height="60" as="geometry" />
        </mxCell>
        <mxCell id="H88m9tB2CpMA8MdbRzzh-115" value="" style="edgeStyle=orthogonalEdgeStyle;rounded=0;orthogonalLoop=1;jettySize=auto;html=1;" edge="1" parent="1" source="H88m9tB2CpMA8MdbRzzh-116" target="H88m9tB2CpMA8MdbRzzh-117">
          <mxGeometry relative="1" as="geometry" />
        </mxCell>
        <mxCell id="H88m9tB2CpMA8MdbRzzh-116" value="&lt;b&gt;SAVE&lt;/b&gt;&lt;br&gt;Store data" style="rounded=0;whiteSpace=wrap;html=1;fillColor=#fad9d5;strokeColor=#ae4132;" vertex="1" parent="1">
          <mxGeometry x="-290" y="1720" width="120" height="60" as="geometry" />
        </mxCell>
        <mxCell id="H88m9tB2CpMA8MdbRzzh-117" value="databases" style="strokeWidth=2;html=1;shape=mxgraph.flowchart.database;whiteSpace=wrap;fillColor=#f0a30a;strokeColor=#BD7000;fontColor=#000000;" vertex="1" parent="1">
          <mxGeometry x="-275" y="1840" width="90" height="90" as="geometry" />
        </mxCell>
        <mxCell id="H88m9tB2CpMA8MdbRzzh-118" value="" style="edgeStyle=orthogonalEdgeStyle;rounded=0;orthogonalLoop=1;jettySize=auto;html=1;" edge="1" parent="1" source="H88m9tB2CpMA8MdbRzzh-122" target="H88m9tB2CpMA8MdbRzzh-124">
          <mxGeometry relative="1" as="geometry" />
        </mxCell>
        <mxCell id="H88m9tB2CpMA8MdbRzzh-119" value="Yes" style="edgeLabel;html=1;align=center;verticalAlign=middle;resizable=0;points=[];" vertex="1" connectable="0" parent="H88m9tB2CpMA8MdbRzzh-118">
          <mxGeometry x="-0.24" y="-2" relative="1" as="geometry">
            <mxPoint x="2" as="offset" />
          </mxGeometry>
        </mxCell>
        <mxCell id="H88m9tB2CpMA8MdbRzzh-120" style="edgeStyle=orthogonalEdgeStyle;rounded=0;orthogonalLoop=1;jettySize=auto;html=1;entryX=0;entryY=0.5;entryDx=0;entryDy=0;" edge="1" parent="1" source="H88m9tB2CpMA8MdbRzzh-122" target="H88m9tB2CpMA8MdbRzzh-40">
          <mxGeometry relative="1" as="geometry">
            <Array as="points">
              <mxPoint x="-580" y="1250" />
              <mxPoint x="-580" y="205" />
            </Array>
          </mxGeometry>
        </mxCell>
        <mxCell id="H88m9tB2CpMA8MdbRzzh-121" value="No" style="edgeLabel;html=1;align=center;verticalAlign=middle;resizable=0;points=[];" vertex="1" connectable="0" parent="H88m9tB2CpMA8MdbRzzh-120">
          <mxGeometry x="-0.9676" y="4" relative="1" as="geometry">
            <mxPoint y="-5" as="offset" />
          </mxGeometry>
        </mxCell>
        <mxCell id="H88m9tB2CpMA8MdbRzzh-122" value="choice == 4" style="rhombus;whiteSpace=wrap;html=1;fillColor=#6d8764;fontColor=#ffffff;strokeColor=#3A5431;" vertex="1" parent="1">
          <mxGeometry x="-505" y="1210" width="80" height="80" as="geometry" />
        </mxCell>
        <mxCell id="H88m9tB2CpMA8MdbRzzh-123" value="" style="edgeStyle=orthogonalEdgeStyle;rounded=0;orthogonalLoop=1;jettySize=auto;html=1;" edge="1" parent="1" source="H88m9tB2CpMA8MdbRzzh-124" target="H88m9tB2CpMA8MdbRzzh-126">
          <mxGeometry relative="1" as="geometry" />
        </mxCell>
        <mxCell id="H88m9tB2CpMA8MdbRzzh-124" value="&lt;b&gt;DELETE DATA&lt;/b&gt;" style="shape=process;whiteSpace=wrap;html=1;backgroundOutline=1;fillColor=#b0e3e6;strokeColor=#0e8088;" vertex="1" parent="1">
          <mxGeometry x="-545" y="1340" width="160" height="80" as="geometry" />
        </mxCell>
        <mxCell id="H88m9tB2CpMA8MdbRzzh-125" value="" style="edgeStyle=orthogonalEdgeStyle;rounded=0;orthogonalLoop=1;jettySize=auto;html=1;" edge="1" parent="1" source="H88m9tB2CpMA8MdbRzzh-126" target="H88m9tB2CpMA8MdbRzzh-128">
          <mxGeometry relative="1" as="geometry" />
        </mxCell>
        <mxCell id="H88m9tB2CpMA8MdbRzzh-126" value="&lt;b&gt;INPUT&lt;br&gt;&lt;/b&gt;choose data in database" style="shape=parallelogram;perimeter=parallelogramPerimeter;whiteSpace=wrap;html=1;fixedSize=1;fillColor=#647687;fontColor=#ffffff;strokeColor=#314354;" vertex="1" parent="1">
          <mxGeometry x="-525" y="1495" width="120" height="60" as="geometry" />
        </mxCell>
        <mxCell id="H88m9tB2CpMA8MdbRzzh-127" value="" style="edgeStyle=orthogonalEdgeStyle;rounded=0;orthogonalLoop=1;jettySize=auto;html=1;" edge="1" parent="1" source="H88m9tB2CpMA8MdbRzzh-128" target="H88m9tB2CpMA8MdbRzzh-129">
          <mxGeometry relative="1" as="geometry" />
        </mxCell>
        <mxCell id="H88m9tB2CpMA8MdbRzzh-128" value="&lt;b&gt;Delete&lt;/b&gt;&lt;br&gt;remove data" style="rounded=0;whiteSpace=wrap;html=1;fillColor=#fad9d5;strokeColor=#ae4132;" vertex="1" parent="1">
          <mxGeometry x="-525" y="1605" width="120" height="60" as="geometry" />
        </mxCell>
        <mxCell id="H88m9tB2CpMA8MdbRzzh-129" value="databases" style="strokeWidth=2;html=1;shape=mxgraph.flowchart.database;whiteSpace=wrap;fillColor=#f0a30a;strokeColor=#BD7000;fontColor=#000000;" vertex="1" parent="1">
          <mxGeometry x="-510" y="1725" width="90" height="90" as="geometry" />
        </mxCell>
        <mxCell id="H88m9tB2CpMA8MdbRzzh-130" value="" style="edgeStyle=orthogonalEdgeStyle;rounded=0;orthogonalLoop=1;jettySize=auto;html=1;" edge="1" parent="1" source="H88m9tB2CpMA8MdbRzzh-134" target="H88m9tB2CpMA8MdbRzzh-136">
          <mxGeometry relative="1" as="geometry" />
        </mxCell>
        <mxCell id="H88m9tB2CpMA8MdbRzzh-131" value="Yes" style="edgeLabel;html=1;align=center;verticalAlign=middle;resizable=0;points=[];" vertex="1" connectable="0" parent="H88m9tB2CpMA8MdbRzzh-130">
          <mxGeometry x="-0.24" y="-2" relative="1" as="geometry">
            <mxPoint x="2" as="offset" />
          </mxGeometry>
        </mxCell>
        <mxCell id="H88m9tB2CpMA8MdbRzzh-132" style="edgeStyle=orthogonalEdgeStyle;rounded=0;orthogonalLoop=1;jettySize=auto;html=1;entryX=0;entryY=0.5;entryDx=0;entryDy=0;" edge="1" parent="1" source="H88m9tB2CpMA8MdbRzzh-134" target="H88m9tB2CpMA8MdbRzzh-7">
          <mxGeometry relative="1" as="geometry">
            <Array as="points">
              <mxPoint x="-110" y="450" />
              <mxPoint x="-110" y="-765" />
            </Array>
          </mxGeometry>
        </mxCell>
        <mxCell id="H88m9tB2CpMA8MdbRzzh-133" value="No" style="edgeLabel;html=1;align=center;verticalAlign=middle;resizable=0;points=[];" vertex="1" connectable="0" parent="H88m9tB2CpMA8MdbRzzh-132">
          <mxGeometry x="-0.9728" y="-4" relative="1" as="geometry">
            <mxPoint x="1" y="4" as="offset" />
          </mxGeometry>
        </mxCell>
        <mxCell id="H88m9tB2CpMA8MdbRzzh-134" value="choice == 4" style="rhombus;whiteSpace=wrap;html=1;fillColor=#6d8764;fontColor=#ffffff;strokeColor=#3A5431;" vertex="1" parent="1">
          <mxGeometry x="-57" y="410" width="80" height="80" as="geometry" />
        </mxCell>
        <mxCell id="H88m9tB2CpMA8MdbRzzh-135" value="" style="edgeStyle=orthogonalEdgeStyle;rounded=0;orthogonalLoop=1;jettySize=auto;html=1;" edge="1" parent="1" source="H88m9tB2CpMA8MdbRzzh-136" target="H88m9tB2CpMA8MdbRzzh-138">
          <mxGeometry relative="1" as="geometry" />
        </mxCell>
        <mxCell id="H88m9tB2CpMA8MdbRzzh-136" value="&lt;b&gt;DELETE DATABASE&lt;/b&gt;" style="shape=process;whiteSpace=wrap;html=1;backgroundOutline=1;fillColor=#b0e3e6;strokeColor=#0e8088;" vertex="1" parent="1">
          <mxGeometry x="-97" y="540" width="160" height="80" as="geometry" />
        </mxCell>
        <mxCell id="H88m9tB2CpMA8MdbRzzh-137" value="" style="edgeStyle=orthogonalEdgeStyle;rounded=0;orthogonalLoop=1;jettySize=auto;html=1;" edge="1" parent="1" source="H88m9tB2CpMA8MdbRzzh-138" target="H88m9tB2CpMA8MdbRzzh-140">
          <mxGeometry relative="1" as="geometry" />
        </mxCell>
        <mxCell id="H88m9tB2CpMA8MdbRzzh-138" value="&lt;b&gt;INPUT&lt;/b&gt;&lt;br&gt;Choose database" style="shape=parallelogram;perimeter=parallelogramPerimeter;whiteSpace=wrap;html=1;fixedSize=1;fillColor=#647687;fontColor=#ffffff;strokeColor=#314354;" vertex="1" parent="1">
          <mxGeometry x="-77" y="695" width="120" height="60" as="geometry" />
        </mxCell>
        <mxCell id="H88m9tB2CpMA8MdbRzzh-139" value="" style="edgeStyle=orthogonalEdgeStyle;rounded=0;orthogonalLoop=1;jettySize=auto;html=1;" edge="1" parent="1" source="H88m9tB2CpMA8MdbRzzh-140" target="H88m9tB2CpMA8MdbRzzh-141">
          <mxGeometry relative="1" as="geometry" />
        </mxCell>
        <mxCell id="H88m9tB2CpMA8MdbRzzh-140" value="&lt;b&gt;Delete&lt;/b&gt;&lt;br&gt;remove database" style="rounded=0;whiteSpace=wrap;html=1;fillColor=#fad9d5;strokeColor=#ae4132;" vertex="1" parent="1">
          <mxGeometry x="-77" y="805" width="120" height="60" as="geometry" />
        </mxCell>
        <mxCell id="H88m9tB2CpMA8MdbRzzh-141" value="databases" style="strokeWidth=2;html=1;shape=mxgraph.flowchart.database;whiteSpace=wrap;fillColor=#f0a30a;strokeColor=#BD7000;fontColor=#000000;" vertex="1" parent="1">
          <mxGeometry x="-62" y="925" width="90" height="90" as="geometry" />
        </mxCell>
      </root>
    </mxGraphModel>
  </diagram>
</mxfile>
